<?xml version="1.0" encoding="utf-8"?>
<!-- Generator: Adobe Illustrator 16.0.0, SVG Export Plug-In . SVG Version: 6.00 Build 0)  -->
<!DOCTYPE svg PUBLIC "-//W3C//DTD SVG 1.1//EN" "http://www.w3.org/Graphics/SVG/1.1/DTD/svg11.dtd">
<svg version="1.1" id="Layer_1" xmlns="http://www.w3.org/2000/svg" xmlns:xlink="http://www.w3.org/1999/xlink" x="0px" y="0px"
	 width="47px" height="61.725px" viewBox="0 0 47 61.725" enable-background="new 0 0 47 61.725" xml:space="preserve">
<g>
	<g>
		<path fill="#FFFFFF" stroke="#FF0000" stroke-width="2" stroke-miterlimit="10" d="M46,23.5C46,35.919,35.921,46,23.5,46
			C11.08,46,1,35.919,1,23.5S11.08,1,23.5,1C35.921,1,46,11.081,46,23.5z"/>
		<path fill="#FF0000" d="M16.09,16.018c0,2.293-1.492,4.162-3.316,4.162c-1.82,0-3.31-1.869-3.31-4.162
			c0-2.275,1.489-4.142,3.31-4.142C14.598,11.876,16.09,13.742,16.09,16.018z"/>
		<path fill="#FF0000" d="M37.677,16.018c0,2.293-1.481,4.162-3.306,4.162c-1.844,0-3.324-1.869-3.324-4.162
			c0-2.275,1.48-4.142,3.324-4.142C36.195,11.876,37.677,13.742,37.677,16.018z"/>
		<path fill="none" stroke="#FF0000" stroke-width="2" stroke-miterlimit="10" d="M9.375,36.625
			c4.25-11.271,23.5-12.563,28.625-0.117"/>
	</g>
	<text transform="matrix(1 0 0 1 9.4209 59.0332)" fill="#FF0000" font-family="'OpenSans-Light'" font-size="10">плохо</text>
</g>
</svg>
