<?xml version="1.0" encoding="utf-8"?>
<!-- Generator: Adobe Illustrator 16.0.0, SVG Export Plug-In . SVG Version: 6.00 Build 0)  -->
<!DOCTYPE svg PUBLIC "-//W3C//DTD SVG 1.1//EN" "http://www.w3.org/Graphics/SVG/1.1/DTD/svg11.dtd">
<svg version="1.1" id="Layer_1" xmlns="http://www.w3.org/2000/svg" xmlns:xlink="http://www.w3.org/1999/xlink" x="0px" y="0px"
	 width="47px" height="61.19px" viewBox="0 0 47 61.19" enable-background="new 0 0 47 61.19" xml:space="preserve">
<g>
	<g>
		<path fill="#FFFFFF" stroke="#93278F" stroke-width="2" stroke-miterlimit="10" d="M46,23.5C46,35.919,35.92,46,23.5,46
			S1,35.919,1,23.5S11.08,1,23.5,1S46,11.081,46,23.5z"/>
		<path fill="#93278F" d="M16.09,16.185c0,2.384-1.492,4.328-3.316,4.328c-1.82,0-3.311-1.944-3.311-4.328
			c0-2.368,1.49-4.309,3.311-4.309C14.598,11.876,16.09,13.816,16.09,16.185z"/>
		<path fill="#93278F" d="M37.676,16.185c0,2.384-1.48,4.328-3.305,4.328c-1.844,0-3.324-1.944-3.324-4.328
			c0-2.368,1.48-4.309,3.324-4.309C36.195,11.876,37.676,13.816,37.676,16.185z"/>
		<line fill="none" stroke="#93278F" stroke-width="2" stroke-miterlimit="10" x1="10.854" y1="33.003" x2="36.854" y2="33.003"/>
	</g>
	<text transform="matrix(1 0 0 1 4.502 58.499)" fill="#9E005D" font-family="'OpenSans-Light'" font-size="10">так себе</text>
</g>
</svg>
