<?xml version="1.0" encoding="utf-8"?>
<!-- Generator: Adobe Illustrator 16.0.0, SVG Export Plug-In . SVG Version: 6.00 Build 0)  -->
<!DOCTYPE svg PUBLIC "-//W3C//DTD SVG 1.1//EN" "http://www.w3.org/Graphics/SVG/1.1/DTD/svg11.dtd">
<svg version="1.1" id="Layer_1" xmlns="http://www.w3.org/2000/svg" xmlns:xlink="http://www.w3.org/1999/xlink" x="0px" y="0px"
	 width="47px" height="61.725px" viewBox="0 0 47 61.725" enable-background="new 0 0 47 61.725" xml:space="preserve">
<g>
	<g>
		<path fill="#FFFFFF" stroke="#7AC943" stroke-width="2" stroke-miterlimit="10" d="M46,23.5C46,35.919,35.921,46,23.5,46
			C11.08,46,1,35.919,1,23.5S11.08,1,23.5,1C35.921,1,46,11.081,46,23.5z"/>
		<path fill="#7AC943" d="M16.09,15.187c0,1.832-1.492,3.326-3.316,3.326c-1.82,0-3.31-1.494-3.31-3.326
			c0-1.819,1.489-3.311,3.31-3.311C14.598,11.876,16.09,13.367,16.09,15.187z"/>
		<path fill="#7AC943" d="M37.677,15.187c0,1.832-1.481,3.326-3.306,3.326c-1.844,0-3.324-1.494-3.324-3.326
			c0-1.819,1.48-3.311,3.324-3.311C36.195,11.876,37.677,13.367,37.677,15.187z"/>
		<path fill="#FFFFFF" stroke="#7AC943" stroke-width="2" stroke-miterlimit="10" d="M39.411,29.323
			c0,5.58-5.829,13.49-15.763,13.49c-10.102,0-15.767-7.91-15.767-13.49c0-5.576,7.563,0.703,15.329,0.703
			C30.992,30.026,39.411,23.747,39.411,29.323z"/>
	</g>
	<text transform="matrix(1 0 0 1 3.3574 59.0332)" fill="#7AC943" font-family="'OpenSans-Light'" font-size="10">отлично</text>
</g>
</svg>
