<?xml version="1.0" encoding="utf-8"?>
<!-- Generator: Adobe Illustrator 16.0.0, SVG Export Plug-In . SVG Version: 6.00 Build 0)  -->
<!DOCTYPE svg PUBLIC "-//W3C//DTD SVG 1.1//EN" "http://www.w3.org/Graphics/SVG/1.1/DTD/svg11.dtd">
<svg version="1.1" id="Layer_1" xmlns="http://www.w3.org/2000/svg" xmlns:xlink="http://www.w3.org/1999/xlink" x="0px" y="0px"
	 width="74px" height="74px" viewBox="0 0 74 74" enable-background="new 0 0 74 74" xml:space="preserve">
<path fill="#00FF00" d="M37,0c-0.074,0-0.146,0.005-0.221,0.005v7.5C36.854,7.505,36.926,7.5,37,7.5c16.291,0,29.5,13.209,29.5,29.5
	c0,16.29-13.209,29.5-29.5,29.5C20.711,66.5,7.5,53.29,7.5,37c0-7.329,2.68-14.029,7.105-19.188L8.887,12.96
	C3.352,19.427,0,27.819,0,37c0,20.435,16.566,37,37,37c20.436,0,37-16.565,37-37S57.436,0,37,0z"/>
<path fill="#F2F2F2" d="M9.387,12.96l5.469,4.852c5.365-6.257,13.924-10.24,21.924-10.307v-7.5
	C25.779,0.071,16.129,5.083,9.387,12.96z"/>
</svg>
