<?xml version="1.0" encoding="utf-8"?>
<!-- Generator: Adobe Illustrator 16.0.0, SVG Export Plug-In . SVG Version: 6.00 Build 0)  -->
<!DOCTYPE svg PUBLIC "-//W3C//DTD SVG 1.1//EN" "http://www.w3.org/Graphics/SVG/1.1/DTD/svg11.dtd">
<svg version="1.1" id="Layer_1" xmlns="http://www.w3.org/2000/svg" xmlns:xlink="http://www.w3.org/1999/xlink" x="0px" y="0px"
	 width="100px" height="100px" viewBox="0 0 100 100" enable-background="new 0 0 100 100" xml:space="preserve">
<g>
	<path fill="#FFFFFF" d="M56.773,10.391c-17.678,0-32,14.329-32,32c0,6.044,1.676,11.695,4.588,16.517L13.846,74.423l0.054,0.054
		c-1.656,1.586-2.673,3.836-2.673,6.379c-0.001,4.912,3.913,8.754,8.821,8.754c2.507-0.002,4.749-1.004,6.349-2.637l0.039,0.039
		l16.008-16.009c4.312,2.163,9.176,3.388,14.33,3.388c17.681,0,32-14.326,32-32C88.773,24.72,74.453,10.391,56.773,10.391z
		 M56.968,61.809c-11.05,0-20.001-8.955-20.001-20c0-11.044,8.951-20,20.001-20s19.999,8.955,19.999,20
		C76.968,52.854,68.018,61.809,56.968,61.809z"/>
</g>
</svg>
