<?xml version="1.0" encoding="utf-8"?>
<!-- Generator: Adobe Illustrator 16.0.0, SVG Export Plug-In . SVG Version: 6.00 Build 0)  -->
<!DOCTYPE svg PUBLIC "-//W3C//DTD SVG 1.1//EN" "http://www.w3.org/Graphics/SVG/1.1/DTD/svg11.dtd">
<svg version="1.1" id="Layer_1" xmlns="http://www.w3.org/2000/svg" xmlns:xlink="http://www.w3.org/1999/xlink" x="0px" y="0px"
	 width="50px" height="50px" viewBox="0 0 50 50" enable-background="new 0 0 50 50" xml:space="preserve">
<rect fill="#FFBE00" width="50" height="50"/>
<g>
	<g>
		<path fill="#F2F2F2" d="M35.656,8.348c-0.516-0.191-1.347-0.16-1.847,0.069L2.454,22.807c-0.5,0.229-0.721,0.826-0.492,1.326
			l9.176,19.995c0.229,0.5,0.826,0.722,1.326,0.492l31.356-14.39c0.5-0.229,1.039-0.848,1.198-1.374l2.693-8.938
			c0.159-0.527,0.102-1.367-0.128-1.866l-2.503-5.454c-0.229-0.5-0.839-1.065-1.354-1.256L35.656,8.348z M41.184,22.087
			c-2.008,0.921-4.383,0.041-5.304-1.967c-0.922-2.007-0.041-4.382,1.967-5.304s4.383-0.041,5.304,1.967
			S43.191,21.166,41.184,22.087z"/>
	</g>
	<g>
		<path fill="#FFBE00" d="M14.221,31.599c0.221,0.483,0.295,0.968,0.223,1.454c-0.073,0.487-0.293,0.94-0.659,1.36
			c-0.366,0.419-0.86,0.771-1.481,1.057c-0.519,0.238-0.97,0.401-1.354,0.489c-0.385,0.089-0.81,0.13-1.272,0.123l-0.859-1.875
			c0.496,0.022,0.986-0.008,1.473-0.092c0.485-0.083,0.91-0.208,1.271-0.374c0.313-0.144,0.518-0.303,0.613-0.478
			c0.096-0.176,0.104-0.348,0.026-0.519c-0.05-0.106-0.121-0.187-0.217-0.239c-0.095-0.053-0.226-0.091-0.394-0.113
			c-0.166-0.021-0.588-0.03-1.265-0.025c-0.614,0.002-1.098-0.047-1.451-0.146c-0.353-0.1-0.655-0.262-0.906-0.486
			c-0.251-0.224-0.465-0.527-0.641-0.912c-0.329-0.717-0.324-1.396,0.013-2.036c0.338-0.641,0.963-1.17,1.876-1.589
			c0.806-0.37,1.713-0.561,2.722-0.572l0.102,1.92c-0.881,0-1.586,0.121-2.115,0.364c-0.273,0.126-0.45,0.265-0.53,0.417
			c-0.08,0.153-0.088,0.301-0.022,0.443c0.069,0.152,0.211,0.253,0.425,0.301s0.743,0.072,1.589,0.07
			c0.81-0.006,1.424,0.104,1.845,0.33C13.649,30.697,13.98,31.073,14.221,31.599z"/>
		<path fill="#FFBE00" d="M21.287,31.219l-1.054-1.283l-2.529,1.16l0.275,1.641l-2.311,1.061l-1.048-8.983l2.807-1.288l6.16,6.638
			L21.287,31.219z M19.005,28.41l-0.923-1.124c-0.209-0.248-0.472-0.571-0.791-0.972c-0.318-0.399-0.54-0.688-0.666-0.867
			c0.052,0.195,0.126,0.522,0.223,0.981c0.096,0.458,0.263,1.372,0.501,2.742L19.005,28.41z"/>
		<path fill="#FFBE00" d="M24.428,29.777l-3.572-7.786l2.104-0.965l2.793,6.087l2.998-1.376l0.779,1.698L24.428,29.777z"/>
		<path fill="#FFBE00" d="M35.398,24.743l-4.623,2.122l-3.572-7.786l4.623-2.121l0.773,1.688l-2.518,1.156l0.561,1.225l2.334-1.07
			l0.773,1.688l-2.332,1.07l0.674,1.47l2.52-1.156L35.398,24.743z"/>
	</g>
</g>
</svg>
