<?xml version="1.0" encoding="utf-8"?>
<!-- Generator: Adobe Illustrator 16.0.0, SVG Export Plug-In . SVG Version: 6.00 Build 0)  -->
<!DOCTYPE svg PUBLIC "-//W3C//DTD SVG 1.1//EN" "http://www.w3.org/Graphics/SVG/1.1/DTD/svg11.dtd">
<svg version="1.1" id="Layer_1" xmlns="http://www.w3.org/2000/svg" xmlns:xlink="http://www.w3.org/1999/xlink" x="0px" y="0px"
	 width="31px" height="31px" viewBox="0 0 31 31" enable-background="new 0 0 31 31" xml:space="preserve">
<rect x="-16.5" y="-279.5" fill="#E6E6E6" stroke="#FFFFFF" stroke-miterlimit="10" width="319" height="342"/>
<rect x="-16.5" y="-124.5" fill="#FFFFFF" stroke="#B3B3B3" stroke-miterlimit="10" width="320" height="172"/>
<rect x="-5" y="-20" fill="#D9EEFD" width="297" height="56"/>
<rect fill="#FF8080" width="31" height="31"/>
<path fill="#FFFFFF" d="M6.138,23.554c4.322,6.175,15.765,6.021,20.17,0.538c1.817-2.261,0.832-7.049-3.671-5.873
	c-0.805,0.209-3.574,0.636-3.672-2.008c-0.068-1.855,2.526-3.378,2.596-7.687c0.048-3.084-1.471-6.07-5.142-6.267
	c-4.845-0.259-7.05,2.839-7.148,5.825c-0.162,4.97,2.621,5.683,2.742,8.176c0.147,3.036-1.739,1.65-3.965,2.252
	C3.886,19.638,5.795,23.064,6.138,23.554z"/>
</svg>
