<?xml version="1.0" encoding="utf-8"?>
<!-- Generator: Adobe Illustrator 16.0.0, SVG Export Plug-In . SVG Version: 6.00 Build 0)  -->
<!DOCTYPE svg PUBLIC "-//W3C//DTD SVG 1.1//EN" "http://www.w3.org/Graphics/SVG/1.1/DTD/svg11.dtd">
<svg version="1.1" id="Layer_1" xmlns="http://www.w3.org/2000/svg" xmlns:xlink="http://www.w3.org/1999/xlink" x="0px" y="0px"
	 width="74px" height="74px" viewBox="0 0 74 74" enable-background="new 0 0 74 74" xml:space="preserve">
<circle fill="#FF7A7A" cx="37" cy="37" r="37"/>
<g>
	<path fill="#FFFFFF" d="M47.25,15.02c7.527,0,15.618,4.918,15.625,15.705C62.883,43.066,51.299,50.145,38,50.145
		c-13.659,0-22.887-8.564-27.601-18.043c-4.155-8.355,5.07-13.664,10.338-7.844c4.763,5.262,10.269,6.42,12.638,1.512
		C36.875,18.52,41.5,15.02,47.25,15.02z"/>
	<path fill="#FFFFFF" d="M62.868,29.938c0,12.33,0,0,0.007,10.787C62.883,53.066,51.299,60.145,38,60.145
		c-13.659,0-22.887-8.564-27.601-18.043c-1.261-2.535-1.046-2.832-1.046-2.832l0.008-11.25c0,0,21.645,12.658,24.014,7.75
		C36.875,28.52,62.868,29.938,62.868,29.938z"/>
	<path fill="#FF7A7A" d="M48.25,18.395c5.867,0,11.5,4.998,11.5,12.492c0,8.922-7.313,14.959-20.313,16.334
		C25.854,48.656,16,36.52,13,30.725c-2.578-4.979,3.047-7.961,6.125-4.08c6.5,8.197,14.354,6.158,16.723,1.25
		C39.348,20.645,42.5,18.395,48.25,18.395z"/>
	<circle fill="#FFFFFF" cx="48.25" cy="26.645" r="4.242"/>
</g>
</svg>
