<?xml version="1.0" encoding="utf-8"?>
<!-- Generator: Adobe Illustrator 16.0.0, SVG Export Plug-In . SVG Version: 6.00 Build 0)  -->
<!DOCTYPE svg PUBLIC "-//W3C//DTD SVG 1.1//EN" "http://www.w3.org/Graphics/SVG/1.1/DTD/svg11.dtd">
<svg version="1.1" id="Layer_1" xmlns="http://www.w3.org/2000/svg" xmlns:xlink="http://www.w3.org/1999/xlink" x="0px" y="0px"
	 width="74px" height="74px" viewBox="0 0 74 74" enable-background="new 0 0 74 74" xml:space="preserve">
<g>
	<defs>
		<rect id="SVGID_31_" x="-121.863" y="-561" width="320" height="541"/>
	</defs>
	<clipPath id="SVGID_2_">
		<use xlink:href="#SVGID_31_"  overflow="visible"/>
	</clipPath>
	<g transform="matrix(1 0 0 1 -2.340302e-005 -1.207631e-005)" clip-path="url(#SVGID_2_)">
		
			<image overflow="visible" width="680" height="454" xlink:href="D:\Dropbox\Dropbox\Сайты\Foodrating\Скетч\christmas_lima_bean_stew.jpg"  transform="matrix(1.1932 0 0 1.271 -390.0088 -560.9814)">
		</image>
	</g>
</g>
<g>
	
		<image overflow="visible" opacity="0.75" width="344" height="1218" xlink:href="80D4EAFC.png"  transform="matrix(1 0 0 1 -133.8633 -67)">
	</image>
	<g>
		<rect x="-121.863" y="-51" fill="#F2F2F2" width="320" height="1194"/>
	</g>
</g>
<g>
	
		<image overflow="visible" opacity="0.5" width="339" height="309" xlink:href="80D4EAFB.png"  transform="matrix(1 0 0 1 -130.8633 -71)">
	</image>
	<g>
		<rect x="-121.863" y="-63" fill="#FFFFFF" width="320" height="290"/>
	</g>
</g>
<g>
	<circle fill="#FFCC33" cx="37" cy="37" r="37"/>
	<g>
		<g>
			<path fill="#FFFFFF" d="M62.92,43.135c0,5.74-4.742,10.393-10.481,10.393s-10.481-4.652-10.481-10.393
				c0-1.842,0.178-9.859,0.178-11.805c0,0,6.405,1.412,10.304,1.412c4.474,0,10.437-1.412,10.437-1.412
				C62.92,33.41,62.92,41.869,62.92,43.135z"/>
			<circle fill="#FFFFFF" cx="52.527" cy="31.33" r="10.393"/>
			<circle fill="#FFCC33" cx="52.528" cy="31.33" r="7.531"/>
			<circle fill="#FFFFFF" cx="52.527" cy="31.33" r="4.117"/>
		</g>
		<g>
			<path fill="#FFFFFF" d="M32.92,43.135c0,5.74-4.742,10.393-10.481,10.393s-10.481-4.652-10.481-10.393
				c0-1.842,0.178-9.859,0.178-11.805c0,0,6.405,1.412,10.304,1.412c4.474,0,10.437-1.412,10.437-1.412
				C32.92,33.41,32.92,41.869,32.92,43.135z"/>
			<circle fill="#FFFFFF" cx="22.527" cy="31.33" r="10.393"/>
			<circle fill="#FFCC33" cx="22.528" cy="31.33" r="7.531"/>
			<circle fill="#FFFFFF" cx="22.527" cy="31.33" r="4.117"/>
		</g>
	</g>
</g>
</svg>
