<?xml version="1.0" encoding="utf-8"?>
<!-- Generator: Adobe Illustrator 16.0.0, SVG Export Plug-In . SVG Version: 6.00 Build 0)  -->
<!DOCTYPE svg PUBLIC "-//W3C//DTD SVG 1.1//EN" "http://www.w3.org/Graphics/SVG/1.1/DTD/svg11.dtd">
<svg version="1.1" id="Layer_1" xmlns="http://www.w3.org/2000/svg" xmlns:xlink="http://www.w3.org/1999/xlink" x="0px" y="0px"
	 width="50px" height="50px" viewBox="0 0 50 50" enable-background="new 0 0 50 50" xml:space="preserve">
<rect fill="#FF1D25" width="50" height="50"/>
<g>
	<g>
		<path fill="#F2F2F2" d="M35.656,8.348c-0.516-0.191-1.347-0.16-1.847,0.069L2.454,22.807c-0.5,0.229-0.721,0.826-0.492,1.326
			l9.176,19.995c0.229,0.5,0.826,0.722,1.326,0.492l31.356-14.39c0.5-0.229,1.039-0.848,1.198-1.374l2.693-8.938
			c0.159-0.527,0.102-1.367-0.128-1.866l-2.503-5.454c-0.229-0.5-0.839-1.065-1.354-1.256L35.656,8.348z M41.184,22.087
			c-2.008,0.921-4.383,0.041-5.304-1.967c-0.922-2.007-0.041-4.382,1.967-5.304s4.383-0.041,5.304,1.967
			S43.191,21.166,41.184,22.087z"/>
	</g>
	<g>
		<path fill="#FF1D25" d="M13.01,33.701l-1.41,0.646l-0.971-2.115l-1.63,0.747l0.972,2.116l-1.41,0.646l-2.382-5.189l1.409-0.647
			l0.884,1.924l1.629-0.747l-0.883-1.924l1.409-0.647L13.01,33.701z"/>
		<path fill="#FF1D25" d="M17.794,28.355c0.4,0.873,0.491,1.635,0.271,2.286s-0.743,1.166-1.569,1.545
			c-0.814,0.374-1.543,0.433-2.188,0.175c-0.644-0.258-1.166-0.823-1.566-1.696c-0.396-0.864-0.483-1.623-0.261-2.276
			c0.223-0.654,0.746-1.17,1.57-1.549c0.825-0.379,1.556-0.439,2.188-0.184C16.874,26.913,17.392,27.479,17.794,28.355z
			 M14.222,29.994c0.461,1.004,1.041,1.346,1.738,1.024c0.355-0.163,0.563-0.405,0.622-0.728c0.061-0.323-0.028-0.742-0.266-1.258
			c-0.237-0.519-0.5-0.861-0.787-1.029c-0.287-0.167-0.604-0.172-0.95-0.014C13.876,28.313,13.757,28.98,14.222,29.994z"/>
		<path fill="#FF1D25" d="M17.543,25.337l1.811-0.831c0.705-0.324,1.277-0.459,1.716-0.407c0.438,0.052,0.759,0.3,0.962,0.742
			c0.134,0.291,0.173,0.574,0.118,0.849c-0.055,0.274-0.19,0.497-0.407,0.668l0.017,0.035c0.361-0.062,0.659-0.027,0.896,0.105
			c0.235,0.133,0.426,0.357,0.571,0.675c0.216,0.471,0.21,0.924-0.02,1.355c-0.23,0.434-0.65,0.791-1.261,1.071l-2.02,0.927
			L17.543,25.337z M19.859,26.686l0.423-0.194c0.201-0.092,0.338-0.205,0.41-0.339c0.071-0.133,0.07-0.281-0.005-0.444
			c-0.134-0.291-0.42-0.336-0.86-0.134l-0.394,0.181L19.859,26.686z M20.331,27.711l0.5,1.09l0.493-0.227
			c0.438-0.201,0.572-0.485,0.402-0.854c-0.079-0.174-0.199-0.278-0.358-0.317s-0.351-0.007-0.572,0.096L20.331,27.711z"/>
		<path fill="#FF1D25" d="M27.74,24.856c0.255,0.554,0.261,1.065,0.021,1.536c-0.241,0.471-0.709,0.865-1.402,1.183l-1.534,0.704
			l-2.382-5.19l1.409-0.647l0.848,1.846l0.07-0.033c0.725-0.332,1.34-0.449,1.845-0.35C27.12,24.004,27.495,24.321,27.74,24.856z
			 M25.737,26.549l0.057-0.025c0.55-0.252,0.73-0.581,0.544-0.989c-0.181-0.393-0.548-0.461-1.102-0.207l-0.05,0.022L25.737,26.549z
			 M30.416,25.713l-1.413,0.648l-2.382-5.19l1.413-0.648L30.416,25.713z"/>
		<path fill="#FF1D25" d="M34.616,23.786L31.535,25.2l-2.383-5.19l3.082-1.414l0.517,1.125l-1.679,0.771l0.374,0.816l1.555-0.713
			l0.517,1.125l-1.555,0.714l0.449,0.979l1.68-0.771L34.616,23.786z"/>
	</g>
</g>
</svg>
