<?xml version="1.0" encoding="utf-8"?>
<!-- Generator: Adobe Illustrator 16.0.0, SVG Export Plug-In . SVG Version: 6.00 Build 0)  -->
<!DOCTYPE svg PUBLIC "-//W3C//DTD SVG 1.1//EN" "http://www.w3.org/Graphics/SVG/1.1/DTD/svg11.dtd">
<svg version="1.1" id="Layer_1" xmlns="http://www.w3.org/2000/svg" xmlns:xlink="http://www.w3.org/1999/xlink" x="0px" y="0px"
	 width="74px" height="74px" viewBox="0 0 74 74" enable-background="new 0 0 74 74" xml:space="preserve">
<g>
	
		<image overflow="visible" opacity="0.75" width="344" height="1218" xlink:href="90CC4C84.png"  transform="matrix(1 0 0 1 -40.8633 -179)">
	</image>
	<g>
		<rect x="-28.863" y="-163" fill="#F2F2F2" width="320" height="1194"/>
	</g>
</g>
<g>
	
		<image overflow="visible" opacity="0.5" width="339" height="309" xlink:href="90CC4C85.png"  transform="matrix(1 0 0 1 -37.8633 -183)">
	</image>
	<g>
		<rect x="-28.863" y="-175" fill="#FFFFFF" width="320" height="290"/>
	</g>
</g>
<circle fill="#FFCC00" cx="37" cy="37" r="37"/>
<path fill="#FFFFFF" d="M16.553,26.473c-3.345,14.355,6.063,28.678,20.418,32.023L63.262,19L16.553,26.473z"/>
<path fill="#FFFFFF" d="M10.387,27.668c-3.857,16.553,6.411,32.283,23.25,36.207l2.158-3.326c0,0-12.223-1.719-18.741-12.545
	c-6.825-11.336-3.31-21.035-3.31-21.035L10.387,27.668z"/>
<circle fill="#FFCC00" cx="26.22" cy="35.666" r="5.185"/>
<circle fill="#FFCC00" cx="43.72" cy="31.5" r="3.3"/>
<circle fill="#FFCC00" cx="34.72" cy="46.5" r="3.3"/>
</svg>
