<?xml version="1.0" encoding="utf-8"?>
<!-- Generator: Adobe Illustrator 16.0.0, SVG Export Plug-In . SVG Version: 6.00 Build 0)  -->
<!DOCTYPE svg PUBLIC "-//W3C//DTD SVG 1.1//EN" "http://www.w3.org/Graphics/SVG/1.1/DTD/svg11.dtd">
<svg version="1.1" id="Layer_1" xmlns="http://www.w3.org/2000/svg" xmlns:xlink="http://www.w3.org/1999/xlink" x="0px" y="0px"
	 width="74px" height="74px" viewBox="0 0 74 74" enable-background="new 0 0 74 74" xml:space="preserve">
<g>
	
		<image overflow="visible" opacity="0.75" width="344" height="1218" xlink:href="C58497C3.png"  transform="matrix(1 0 0 1 -134.5527 -180)">
	</image>
	<g>
		<rect x="-122.553" y="-164" fill="#F2F2F2" width="320" height="1194"/>
	</g>
</g>
<g>
	
		<image overflow="visible" opacity="0.5" width="339" height="309" xlink:href="C58497C1.png"  transform="matrix(1 0 0 1 -131.5527 -184)">
	</image>
	<g>
		<rect x="-122.553" y="-176" fill="#FFFFFF" width="320" height="290"/>
	</g>
</g>
<circle fill="#8CC63F" cx="37" cy="37" r="37"/>
<g>
	<path fill="#FFFFFF" d="M27.447,56.496v2.293c0,0,0.74,0.877,7.527,0.877c6.904,0,7.473-0.877,7.473-0.877v-2.32
		c0,0,17.449-0.469,17.449-17.469H14.008C14.008,56,27.447,56.496,27.447,56.496z"/>
	<g>
		<polygon fill="#FFFFFF" points="18.109,21.691 63.719,16.477 63.549,14.781 18.072,21.328 		"/>
		<polygon fill="#FFFFFF" points="18.213,22.977 63.993,20.285 63.854,18.045 18.184,22.496 		"/>
	</g>
	<g>
		<path fill="none" stroke="#FFFFFF" stroke-miterlimit="10" d="M35.814,21.855c-0.457,0-1.168,0.855-1.193,1.414
			c-0.031,0.669,1.264,1.265,1.232,1.932c-0.027,0.559-1.184,1.418-1.193,1.98c-0.01,0.568,1.16,1.501,1.154,2.071
			c-0.004,0.596-1.242,1.243-1.23,1.839c0.01,0.601,1.289,1.471,1.307,2.071c0.018,0.598-1.186,1.29-1.193,1.887
			c-0.004,0.611,1.209,1.362,1.193,1.978c-0.012,0.551-1.152,1.414-1.152,1.414"/>
		<path fill="none" stroke="#FFFFFF" stroke-miterlimit="10" d="M38.086,21.391c-0.457,0-1.168,0.88-1.193,1.456
			c-0.031,0.689,1.264,1.301,1.232,1.99c-0.027,0.575-1.184,1.46-1.193,2.037c-0.01,0.588,1.158,1.55,1.154,2.137
			c-0.006,0.611-1.242,1.279-1.23,1.892c0.01,0.622,1.289,1.518,1.307,2.135c0.016,0.614-1.186,1.328-1.193,1.943
			c-0.006,0.633,1.209,1.404,1.193,2.04c-0.012,0.567-1.152,1.456-1.152,1.456"/>
		<path fill="none" stroke="#FFFFFF" stroke-miterlimit="10" d="M40.332,21.48c-0.457,0-1.166,0.878-1.191,1.449
			c-0.031,0.688,1.262,1.297,1.23,1.985c-0.025,0.573-1.182,1.454-1.193,2.029c-0.008,0.583,1.16,1.541,1.154,2.129
			c-0.004,0.607-1.242,1.273-1.23,1.884c0.012,0.616,1.291,1.512,1.307,2.127c0.018,0.611-1.186,1.323-1.191,1.936
			c-0.006,0.631,1.209,1.4,1.191,2.031c-0.012,0.565-1.152,1.449-1.152,1.449"/>
		<path fill="none" stroke="#FFFFFF" stroke-miterlimit="10" d="M42.604,21.016c-0.457,0-1.168,0.896-1.193,1.483
			c-0.031,0.701,1.264,1.326,1.232,2.028c-0.027,0.586-1.184,1.487-1.193,2.077c-0.01,0.596,1.16,1.576,1.154,2.175
			c-0.004,0.623-1.242,1.307-1.23,1.931c0.01,0.629,1.289,1.545,1.307,2.174c0.018,0.624-1.186,1.354-1.193,1.98
			c-0.004,0.644,1.209,1.432,1.193,2.075c-0.012,0.579-1.152,1.483-1.152,1.483"/>
		<path fill="none" stroke="#FFFFFF" stroke-miterlimit="10" d="M31.129,22.055c-0.457,0-1.244,1.096-1.27,1.643
			c-0.031,0.654,1.264,1.233,1.232,1.89c-0.027,0.546-1.184,1.387-1.193,1.936c-0.01,0.556,1.16,1.468,1.154,2.025
			c-0.004,0.581-1.242,1.216-1.23,1.798c0.01,0.587,1.289,1.438,1.307,2.025c0.018,0.583-1.186,1.261-1.193,1.842
			c-0.004,0.601,1.209,1.334,1.193,1.936c-0.012,0.539-1.152,1.383-1.152,1.383"/>
		<path fill="none" stroke="#FFFFFF" stroke-miterlimit="10" d="M33.324,21.855c-0.457,0-1.168,0.855-1.193,1.414
			c-0.031,0.667,1.264,1.263,1.232,1.932c-0.027,0.559-1.184,1.418-1.193,1.98c-0.01,0.568,1.158,1.501,1.154,2.071
			c-0.006,0.594-1.242,1.243-1.23,1.839c0.01,0.599,1.289,1.471,1.307,2.071c0.016,0.596-1.186,1.29-1.193,1.885
			c-0.006,0.613,1.209,1.364,1.193,1.979c-0.012,0.551-1.152,1.412-1.152,1.412"/>
	</g>
</g>
</svg>
