<?xml version="1.0" encoding="utf-8"?>
<!-- Generator: Adobe Illustrator 16.0.0, SVG Export Plug-In . SVG Version: 6.00 Build 0)  -->
<!DOCTYPE svg PUBLIC "-//W3C//DTD SVG 1.1//EN" "http://www.w3.org/Graphics/SVG/1.1/DTD/svg11.dtd">
<svg version="1.1" id="Layer_1" xmlns="http://www.w3.org/2000/svg" xmlns:xlink="http://www.w3.org/1999/xlink" x="0px" y="0px"
	 width="50px" height="50px" viewBox="0 0 50 50" enable-background="new 0 0 50 50" xml:space="preserve">
<rect fill="#E6E6E6" width="50" height="50"/>
<title>Layer 1</title>
<g>
	<path fill="#E6E6E6" d="M24.333,7.885c0.367-1.037,0.968-1.037,1.335,0l3.425,9.678c0.367,1.037,1.566,1.909,2.666,1.938
		l10.264,0.267c1.1,0.029,1.285,0.6,0.412,1.27l-8.146,6.248c-0.873,0.67-1.331,2.081-1.019,3.136l2.917,9.842
		c0.313,1.055-0.173,1.408-1.08,0.785l-8.459-5.816c-0.907-0.623-2.39-0.623-3.296,0l-8.46,5.816
		c-0.906,0.623-1.392,0.27-1.08-0.785l2.917-9.842c0.313-1.055-0.146-2.466-1.019-3.136l-8.145-6.248
		c-0.873-0.669-0.687-1.241,0.413-1.27L18.24,19.5c1.1-0.029,2.3-0.901,2.667-1.938L24.333,7.885z"/>
	<path fill="none" stroke="#FF931E" stroke-width="3" d="M24.333,7.885c0.367-1.037,0.968-1.037,1.335,0l3.425,9.678
		c0.367,1.037,1.566,1.909,2.666,1.938l10.264,0.267c1.1,0.029,1.285,0.6,0.412,1.27l-8.146,6.248
		c-0.873,0.67-1.331,2.081-1.019,3.136l2.917,9.842c0.313,1.055-0.173,1.408-1.08,0.785l-8.459-5.816
		c-0.907-0.623-2.39-0.623-3.296,0l-8.46,5.816c-0.906,0.623-1.392,0.27-1.08-0.785l2.917-9.842
		c0.313-1.055-0.146-2.466-1.019-3.136l-8.145-6.248c-0.873-0.669-0.687-1.241,0.413-1.27L18.24,19.5
		c1.1-0.029,2.3-0.901,2.667-1.938L24.333,7.885z"/>
</g>
</svg>
