<?xml version="1.0" encoding="utf-8"?>
<!-- Generator: Adobe Illustrator 16.0.0, SVG Export Plug-In . SVG Version: 6.00 Build 0)  -->
<!DOCTYPE svg PUBLIC "-//W3C//DTD SVG 1.1//EN" "http://www.w3.org/Graphics/SVG/1.1/DTD/svg11.dtd">
<svg version="1.1" id="Layer_1" xmlns="http://www.w3.org/2000/svg" xmlns:xlink="http://www.w3.org/1999/xlink" x="0px" y="0px"
	 width="74px" height="74px" viewBox="0 0 74 74" enable-background="new 0 0 74 74" xml:space="preserve">
<g>
	
		<image overflow="visible" opacity="0.75" width="344" height="1218" xlink:href="E2C33905.png"  transform="matrix(1 0 0 1 -229.8633 -180)">
	</image>
	<g>
		<rect x="-217.863" y="-164" fill="#F2F2F2" width="320" height="1194"/>
	</g>
</g>
<g>
	
		<image overflow="visible" opacity="0.5" width="339" height="309" xlink:href="E2C33907.png"  transform="matrix(1 0 0 1 -226.8633 -184)">
	</image>
	<g>
		<rect x="-217.863" y="-176" fill="#FFFFFF" width="320" height="290"/>
	</g>
</g>
<circle fill="#FF9900" cx="37" cy="37" r="37"/>
<polygon fill="#FFFFFF" points="13.35,42 19.001,50 54.312,50 60.057,42 "/>
<path fill="#FFFFFF" d="M8.072,41h56.608c0,0,0.876,0.074,0.876-1c0-1.012-0.876-1-0.876-1H8.072c0,0-0.706-0.012-0.706,1
	C7.366,41.002,8.072,41,8.072,41z"/>
<g>
	<path fill="none" stroke="#FFFFFF" stroke-width="2" stroke-miterlimit="10" d="M13.887,39.734c0,0,4.51-14.631,18.418,0"/>
	<path fill="none" stroke="#FFFFFF" stroke-width="2" stroke-miterlimit="10" d="M18.396,39.734c0,0,1.74-5.389,6.99,0"/>
	<path fill="none" stroke="#FFFFFF" stroke-width="2" stroke-miterlimit="10" d="M19.137,33.725c0,0,5.793-9.307,17.566,6.01"/>
	<path fill="none" stroke="#FFFFFF" stroke-width="2" stroke-miterlimit="10" d="M24.93,31.035c0.714-1.258,5.719-7.07,16.367,8.699
		"/>
	<path fill="none" stroke="#FFFFFF" stroke-width="2" stroke-miterlimit="10" d="M54.817,39.734c0,0-2.923-7.816-13.521,0"/>
	<path fill="none" stroke="#FFFFFF" stroke-width="2" stroke-miterlimit="10" d="M59.799,39.734c0,0-9.162-15.545-20.068-1.736"/>
	<path fill="none" stroke="#FFFFFF" stroke-width="2" stroke-miterlimit="10" d="M54.817,34.346c0,0-6.347-12.668-16.597,0.984"/>
	<path fill="none" stroke="#FFFFFF" stroke-width="2" stroke-miterlimit="10" d="M48.057,29.225c0,0-4.907-6.988-11.907,4.006"/>
	<path fill="none" stroke="#FFFFFF" stroke-width="2" stroke-miterlimit="10" d="M30.105,29.344c0,0,5.199-5.375,10.012-0.777"/>
</g>
</svg>
