<?xml version="1.0" encoding="utf-8"?>
<!-- Generator: Adobe Illustrator 16.0.0, SVG Export Plug-In . SVG Version: 6.00 Build 0)  -->
<!DOCTYPE svg PUBLIC "-//W3C//DTD SVG 1.1//EN" "http://www.w3.org/Graphics/SVG/1.1/DTD/svg11.dtd">
<svg version="1.1" id="Layer_1" xmlns="http://www.w3.org/2000/svg" xmlns:xlink="http://www.w3.org/1999/xlink" x="0px" y="0px"
	 width="56.693px" height="56.693px" viewBox="0 0 56.693 56.693" enable-background="new 0 0 56.693 56.693" xml:space="preserve">
<g>
	<path fill="#FFFFFF" d="M32.926,26.951c-0.005,0.953-0.146,1.956,0.331,2.827l0.012,0.046c0.4,0.894,1.096,1.626,1.911,2.022
		c0.007,0.011,0.831,0.947,0.688,2.29c-0.063,0.535-0.133,1.085-0.203,1.634l-0.877,6.195l-0.031,0.785
		c0,0.345,0.056,0.691,0.171,1.035c0.358,0.92,1.229,1.513,2.213,1.513c1.114,0,2.092-0.789,2.335-1.908
		c0.029-0.152,0.046-0.311,0.046-0.474l0.014-0.051l0.008-0.121L39.4,40.299l-0.738-8.364c-0.072-1.659-0.193-4.551-0.205-5.271
		l-0.08-5.452l0.018-0.25v-9.579l-0.108-0.142c-0.326-0.084-0.948-0.163-1.28-0.163c-1.767,0-3.44,1.242-3.894,2.951
		c-0.308,1.157-0.16,2.346-0.16,3.522c0.002,1.002,0.033,2.004,0.045,3.006c0.002,0.207,0.015,0.416,0.012,0.623
		c-0.01,0.694-0.021,1.389-0.029,2.082C32.962,24.491,32.932,25.72,32.926,26.951z M37.274,36.082l0.061-0.06l0.061,0.064
		l0.261,6.508v0.112c0,0.28-0.229,0.505-0.506,0.505c-0.279,0-0.509-0.226-0.509-0.496L37.274,36.082z M36.352,13.424l0.133-0.032
		l0.022,0.125v5.753l0.258,9.477c0,0.524-0.429,0.954-0.956,0.954c-0.492,0-0.896-0.378-0.992-0.954
		c-0.002-0.67-0.003-1.339-0.003-2.009c-0.002-1.177-0.004-2.354-0.005-3.529c-0.002-2.138-0.002-4.275-0.002-6.413
		c0-0.218,0.028-0.457,0-0.674C34.796,16.033,34.53,13.938,36.352,13.424z M19.851,23.762c-0.09,1.299-0.197,2.598-0.31,3.895
		c-0.124,1.428-0.256,2.854-0.391,4.282c-0.123,1.295-0.246,2.59-0.377,3.884c-0.088,0.866-0.18,1.731-0.263,2.599
		c-0.095,0.987-0.146,1.978-0.206,2.968c-0.056,0.941-0.18,1.963,0.438,2.758c0.532,0.685,1.307,1.148,2.192,1.151
		c0.78,0.003,1.479-0.373,2.011-0.923c0.63-0.653,0.694-1.516,0.661-2.373c-0.044-1.083-0.143-2.165-0.237-3.244
		c-0.057-0.63-0.115-1.259-0.174-1.888c-0.05-0.534-0.101-1.068-0.153-1.604c-0.249-2.519-0.49-5.039-0.71-7.561
		c-0.062-0.698-0.12-1.397-0.176-2.096c-0.013-0.157-0.205-1.847-0.141-1.866c1.571-0.479,2.639-1.921,2.771-3.524l0.014-0.332
		c0.004-2.304-0.042-4.607-0.077-6.911c-0.004-0.297-0.014-0.595-0.014-0.892c0-0.18-0.103-0.324-0.23-0.324h-1.251
		c-0.128,0-0.23,0.144-0.23,0.324l-0.153,8.393c-0.143,0.283-0.332,0.362-0.51,0.361l-0.207-0.066
		c-0.189-0.122-0.217-0.383-0.199-0.55l-0.002-0.152l-0.117-7.984c0-0.18-0.104-0.324-0.23-0.324h-1.253
		c-0.127,0-0.23,0.144-0.23,0.324l-0.15,8.394c-0.144,0.282-0.334,0.361-0.512,0.36c-0.179,0.001-0.367-0.078-0.511-0.36
		l-0.153-8.394c0-0.18-0.104-0.324-0.23-0.324h-1.251c-0.127,0-0.231,0.144-0.231,0.324l-0.081,8.135l-0.008,0.068
		c0,0.452,0.129,0.868,0.326,1.232C17.782,22.612,18.714,23.441,19.851,23.762z M20.875,31.805l0.072-0.099l0.079,0.104
		l0.618,10.578l0.006,0.184c0.013,0.455-0.259,0.83-0.605,0.84s-0.642-0.349-0.654-0.788L20.875,31.805z"/>
</g>
<circle fill="none" stroke="#FFFFFF" stroke-width="2" stroke-miterlimit="10" cx="28.511" cy="28.263" r="24.926"/>
</svg>
