<?xml version="1.0" encoding="utf-8"?>
<!-- Generator: Adobe Illustrator 16.0.0, SVG Export Plug-In . SVG Version: 6.00 Build 0)  -->
<!DOCTYPE svg PUBLIC "-//W3C//DTD SVG 1.1//EN" "http://www.w3.org/Graphics/SVG/1.1/DTD/svg11.dtd">
<svg version="1.1" id="Layer_1" xmlns="http://www.w3.org/2000/svg" xmlns:xlink="http://www.w3.org/1999/xlink" x="0px" y="0px"
	 width="56.693px" height="56.693px" viewBox="54.153 -10.846 56.693 56.693" enable-background="new 54.153 -10.846 56.693 56.693"
	 xml:space="preserve">
<g>
	<path fill="#45413E" d="M86.664,16.189c-0.005,0.953-0.146,1.956,0.331,2.827l0.012,0.046c0.4,0.894,1.095,1.626,1.911,2.023
		c0.007,0.01,0.831,0.947,0.688,2.29c-0.063,0.535-0.133,1.085-0.203,1.634l-0.877,6.195l-0.031,0.785
		c0,0.345,0.056,0.691,0.171,1.035c0.358,0.92,1.229,1.513,2.213,1.513c1.114,0,2.091-0.789,2.335-1.908
		c0.029-0.153,0.046-0.311,0.046-0.474l0.013-0.051l0.008-0.121l-0.143-2.446l-0.738-8.364c-0.072-1.66-0.193-4.551-0.205-5.272
		l-0.08-5.452l0.018-0.25V0.62l-0.109-0.142c-0.326-0.084-0.948-0.163-1.28-0.163c-1.767,0-3.441,1.242-3.894,2.951
		c-0.307,1.158-0.16,2.346-0.16,3.523c0.002,1.002,0.033,2.004,0.045,3.006c0.002,0.207,0.015,0.416,0.012,0.623
		c-0.01,0.694-0.021,1.388-0.029,2.082C86.7,13.729,86.671,14.959,86.664,16.189z M91.012,25.32l0.061-0.06l0.061,0.065l0.26,6.508
		v0.112c0,0.28-0.228,0.505-0.506,0.505c-0.279,0-0.508-0.226-0.508-0.496L91.012,25.32z M90.091,2.662l0.132-0.032l0.023,0.125
		v5.753l0.258,9.476c0,0.525-0.429,0.954-0.956,0.954c-0.493,0-0.896-0.378-0.993-0.954c-0.002-0.67-0.003-1.339-0.003-2.009
		c-0.001-1.176-0.003-2.353-0.004-3.529c-0.002-2.138-0.002-4.275-0.002-6.413c0-0.218,0.028-0.457,0-0.674
		C88.534,5.271,88.268,3.176,90.091,2.662z M73.59,13.001c-0.09,1.299-0.198,2.597-0.31,3.894c-0.124,1.428-0.256,2.855-0.391,4.282
		c-0.123,1.295-0.246,2.59-0.377,3.884c-0.087,0.866-0.179,1.732-0.262,2.599c-0.095,0.987-0.146,1.977-0.206,2.968
		c-0.056,0.941-0.18,1.963,0.437,2.757c0.532,0.685,1.307,1.149,2.193,1.152c0.78,0.003,1.479-0.373,2.01-0.923
		c0.63-0.653,0.695-1.516,0.661-2.373c-0.043-1.083-0.142-2.165-0.237-3.244c-0.056-0.63-0.115-1.259-0.174-1.888
		c-0.049-0.534-0.1-1.068-0.153-1.603c-0.249-2.519-0.49-5.039-0.71-7.561c-0.061-0.698-0.12-1.397-0.176-2.096
		c-0.012-0.157-0.205-1.846-0.14-1.866c1.571-0.479,2.638-1.921,2.771-3.524l0.014-0.332c0.004-2.304-0.042-4.608-0.077-6.911
		c-0.004-0.297-0.014-0.595-0.014-0.892c0-0.18-0.103-0.324-0.23-0.324h-1.251c-0.128,0-0.231,0.143-0.231,0.324l-0.153,8.393
		c-0.143,0.283-0.332,0.362-0.51,0.361l-0.207-0.067c-0.189-0.122-0.217-0.382-0.199-0.549l-0.002-0.153l-0.117-7.984
		c0-0.18-0.104-0.324-0.231-0.324h-1.253c-0.127,0-0.23,0.143-0.23,0.324l-0.151,8.393c-0.143,0.283-0.334,0.362-0.511,0.361
		c-0.179,0.001-0.368-0.078-0.511-0.361l-0.153-8.393c0-0.18-0.104-0.324-0.231-0.324h-1.251c-0.127,0-0.231,0.143-0.231,0.324
		L70.715,9.46l-0.008,0.068c0,0.452,0.129,0.868,0.326,1.232C71.52,11.85,72.452,12.679,73.59,13.001z M74.613,21.044l0.072-0.099
		l0.079,0.104l0.619,10.578l0.005,0.183c0.013,0.455-0.258,0.83-0.605,0.84c-0.347,0.01-0.642-0.349-0.654-0.788L74.613,21.044z"/>
</g>
<circle fill="none" stroke="#504C4D" stroke-width="2" stroke-miterlimit="10" cx="82.25" cy="17.501" r="24.926"/>
</svg>
