<?xml version="1.0" encoding="utf-8"?>
<!-- Generator: Adobe Illustrator 16.0.0, SVG Export Plug-In . SVG Version: 6.00 Build 0)  -->
<!DOCTYPE svg PUBLIC "-//W3C//DTD SVG 1.1//EN" "http://www.w3.org/Graphics/SVG/1.1/DTD/svg11.dtd">
<svg version="1.1" id="Layer_1" xmlns="http://www.w3.org/2000/svg" xmlns:xlink="http://www.w3.org/1999/xlink" x="0px" y="0px"
	 width="41px" height="41px" viewBox="0 0 41 41" enable-background="new 0 0 41 41" xml:space="preserve">
<path fill="#3FA9F5" d="M41,20.5C41,31.821,31.817,41,20.5,41C9.182,41,0,31.821,0,20.5S9.182,0,20.5,0C31.817,0,41,9.179,41,20.5z"
	/>
<g>
	<g>
		<g>
			<path fill="#FFFFFF" d="M18.387,12.336c0,0.276-0.224,0.5-0.5,0.5l0,0c-0.276,0-0.5-0.224-0.5-0.5v-6c0-0.276,0.224-0.5,0.5-0.5
				l0,0c0.276,0,0.5,0.224,0.5,0.5V12.336z"/>
		</g>
		<g>
			<path fill="#FFFFFF" d="M16.387,12.336c0,0.276-0.224,0.5-0.5,0.5l0,0c-0.276,0-0.5-0.224-0.5-0.5v-6c0-0.276,0.224-0.5,0.5-0.5
				l0,0c0.276,0,0.5,0.224,0.5,0.5V12.336z"/>
		</g>
		<g>
			<path fill="#FFFFFF" d="M14.387,12.336c0,0.276-0.224,0.5-0.5,0.5l0,0c-0.276,0-0.5-0.224-0.5-0.5v-6c0-0.276,0.224-0.5,0.5-0.5
				l0,0c0.276,0,0.5,0.224,0.5,0.5V12.336z"/>
		</g>
		<g>
			<path fill="#FFFFFF" d="M12.387,12.336c0,0.276-0.224,0.5-0.5,0.5l0,0c-0.276,0-0.5-0.224-0.5-0.5v-6c0-0.276,0.224-0.5,0.5-0.5
				l0,0c0.276,0,0.5,0.224,0.5,0.5V12.336z"/>
		</g>
		<g>
			<path fill="#FFFFFF" d="M18.387,14.836c0,0.552-0.447,1-1,1h-5c-0.553,0-1-0.448-1-1v-2c0-0.552,0.447-1,1-1h5
				c0.553,0,1,0.448,1,1V14.836z"/>
		</g>
		<g>
			<path fill="#FFFFFF" d="M16.387,34.836c0,0.552-0.447,1-1,1h-1c-0.553,0-1-0.448-1-1v-19c0-0.552,0.447-1,1-1h1
				c0.553,0,1,0.448,1,1V34.836z"/>
		</g>
	</g>
	<g>
		<path fill="#FFFFFF" d="M27.972,35.062c-0.229,0.264-0.687,0.48-1.02,0.48s-0.901-0.132-1.085-0.292s-0.48-0.743-0.48-1.292
			V23.248c0-0.55-0.107-1.15-0.416-1.333c-0.311-0.184-0.832-0.521-1.073-0.75s-0.511-0.867-0.511-1.417V8.165
			c0-0.55,0.334-1.366,0.563-1.813c0.23-0.447,0.94-0.828,1.489-0.846l0.456-0.014c0.549-0.019,1.336,0.285,1.725,0.673l0.051,0.042
			c0.389,0.389,0.717,1.157,0.717,1.707v25.667C28.387,34.131,28.2,34.797,27.972,35.062z"/>
	</g>
</g>
</svg>
