<?xml version="1.0" encoding="utf-8"?>
<!-- Generator: Adobe Illustrator 16.0.0, SVG Export Plug-In . SVG Version: 6.00 Build 0)  -->
<!DOCTYPE svg PUBLIC "-//W3C//DTD SVG 1.1//EN" "http://www.w3.org/Graphics/SVG/1.1/DTD/svg11.dtd">
<svg version="1.1" id="Layer_1" xmlns="http://www.w3.org/2000/svg" xmlns:xlink="http://www.w3.org/1999/xlink" x="0px" y="0px"
	 width="46px" height="46px" viewBox="40.125 -1 46 46" enable-background="new 40.125 -1 46 46" xml:space="preserve">
<text transform="matrix(1.0017 0 0 1 54.7183 33.0195)" fill="#FFFFFF" font-family="'MyriadPro-BoldIt'" font-size="18.2092"> </text>
<path fill="#FFFFFF" d="M67.363,25.025L53.578,38.369c-0.769,0.771,0.643,2.178,1.411,1.407L68.358,26.02
	c0.737-0.674,1.988-0.133,2.533-0.674l5.32-5.728c0.322-0.386,0-0.704-0.321-0.352c-1.313,1.312-2.659,2.622-3.975,3.904
	c-0.319,0.354-0.705,0-0.353-0.352c1.315-1.315,2.597-2.625,3.911-3.939c0.353-0.352,0-0.703-0.353-0.352
	c-1.313,1.313-2.595,2.624-3.911,3.97c-0.32,0.32-0.673,0-0.32-0.353c1.313-1.314,2.626-2.625,3.942-3.937
	c0.32-0.32,0-0.672-0.353-0.32c-1.315,1.279-2.628,2.591-3.942,3.873c-0.353,0.352-0.706,0-0.353-0.353
	c1.313-1.314,2.595-2.593,3.91-3.904c0.352-0.352,0.065-0.672-0.319-0.352l-5.771,5.344C67.491,23.006,68.036,24.32,67.363,25.025
	L67.363,25.025z"/>
<path fill="#FFFFFF" d="M58.835,26.942l12.086,12.481c0.769,0.771,2.212-0.636,1.443-1.407L59.832,25.921
	c-1.701-1.827,0.031-3.967-2.246-6.24c-2.275-2.273-4.807-3.071-6.443-1.44c-1.443,1.44-0.898,4.097,1.443,6.431
	C54.895,26.976,57.008,25.119,58.835,26.942L58.835,26.942z"/>
<polygon fill="#FFFFFF" points="45.437,12.063 46.142,14.208 48.387,14.208 46.56,15.521 47.265,17.666 45.437,16.32 43.642,17.666 
	44.314,15.521 42.52,14.208 44.765,14.208 "/>
<polygon fill="#FFFFFF" points="52.617,6.399 53.292,8.543 55.535,8.543 53.708,9.857 54.414,12 52.617,10.655 50.79,12 
	51.496,9.857 49.669,8.543 51.912,8.543 "/>
<polygon fill="#FFFFFF" points="63.262,4 63.967,6.145 66.209,6.145 64.383,7.455 65.088,9.6 63.262,8.257 61.435,9.6 62.139,7.455 
	60.311,6.145 62.587,6.145 "/>
<polygon fill="#FFFFFF" points="73.839,6.465 74.512,8.608 76.756,8.577 74.96,9.919 75.635,12.032 73.839,10.721 72.011,12.032 
	72.718,9.919 70.891,8.577 73.133,8.608 "/>
<polygon fill="#FFFFFF" points="81.147,12.063 81.821,14.208 84.097,14.208 82.269,15.521 82.943,17.666 81.147,16.32 
	79.319,17.666 80.025,15.521 78.198,14.208 80.442,14.208 "/>
</svg>
