<?xml version="1.0" encoding="utf-8"?>
<!-- Generator: Adobe Illustrator 16.0.0, SVG Export Plug-In . SVG Version: 6.00 Build 0)  -->
<!DOCTYPE svg PUBLIC "-//W3C//DTD SVG 1.1//EN" "http://www.w3.org/Graphics/SVG/1.1/DTD/svg11.dtd">
<svg version="1.1" id="Layer_1" xmlns="http://www.w3.org/2000/svg" xmlns:xlink="http://www.w3.org/1999/xlink" x="0px" y="0px"
	 width="41px" height="41px" viewBox="0 0 41 41" enable-background="new 0 0 41 41" xml:space="preserve">
<g>
	<g>
		<path fill="#FFFFFF" d="M20.5,0C9.182,0,0,9.179,0,20.5S9.182,41,20.5,41C31.817,41,41,31.821,41,20.5S31.817,0,20.5,0z
			 M18.387,11.042c0,0.275,0,0.725,0,1l0,0c0,0.275,0,0.725,0,1v2c0,0.275-0.225,0.5-0.5,0.5h-1c-0.275,0-0.5,0.225-0.5,0.5v19
			c0,0.275-0.225,0.5-0.5,0.5h-1.708c-0.275,0-0.5-0.225-0.5-0.5v-19c0-0.275-0.225-0.5-0.5-0.5h-1.292c-0.275,0-0.5-0.225-0.5-0.5
			v-2c0-0.275,0-0.725,0-1l0,0c0-0.275,0-0.725,0-1v-5c0-0.275,0.225-0.5,0.5-0.5l0,0c0.275,0,0.5,0.225,0.5,0.5v5
			c0,0.275,0.225,0.5,0.5,0.5l0,0c0.275,0,0.5-0.225,0.5-0.5v-5c0-0.275,0.225-0.5,0.5-0.5l0,0c0.275,0,0.5,0.225,0.5,0.5v5
			c0,0.275,0.225,0.5,0.5,0.5l0,0c0.275,0,0.5-0.225,0.5-0.5v-5c0-0.275,0.225-0.5,0.5-0.5l0,0c0.275,0,0.5,0.225,0.5,0.5v5
			c0,0.275,0.225,0.5,0.5,0.5l0,0c0.275,0,0.5-0.225,0.5-0.5v-5c0-0.275,0.225-0.5,0.5-0.5l0,0c0.275,0,0.5,0.225,0.5,0.5V11.042z
			 M28.345,34.337c-0.041,1.917-2.634,1.833-2.625-0.042c0.042-9.042-0.027-11.547-0.027-11.547
			c-0.008-0.275-0.207-0.615-0.444-0.755l-0.264-0.157c-0.237-0.14-0.594-0.41-0.793-0.6l-0.15-0.144
			c-0.199-0.189-0.362-0.57-0.362-0.845c0,0,0-9.16,0-12.705c0-2.875,4.75-3,4.75-0.042C28.429,14.922,28.487,27.676,28.345,34.337z
			"/>
	</g>
</g>
</svg>
